<?xml version="1.0" encoding="UTF-8" standalone="no"?>
<svg
   xmlns:dc="http://purl.org/dc/elements/1.1/"
   xmlns:cc="http://creativecommons.org/ns#"
   xmlns:rdf="http://www.w3.org/1999/02/22-rdf-syntax-ns#"
   xmlns:svg="http://www.w3.org/2000/svg"
   xmlns="http://www.w3.org/2000/svg"
   xmlns:sodipodi="http://sodipodi.sourceforge.net/DTD/sodipodi-0.dtd"
   xmlns:inkscape="http://www.inkscape.org/namespaces/inkscape"
   viewBox="0 0 348 348"
   fill="none"
   version="1.1"
   id="svg6"
   sodipodi:docname="Clockworks.svg"
   inkscape:version="1.0.2-2 (e86c870879, 2021-01-15)">
  <metadata
     id="metadata12">
    <rdf:RDF>
      <cc:Work
         rdf:about="">
        <dc:format>image/svg+xml</dc:format>
        <dc:type
           rdf:resource="http://purl.org/dc/dcmitype/StillImage" />
      </cc:Work>
    </rdf:RDF>
  </metadata>
  <defs
     id="defs10">
    <rect
       x="185.39286"
       y="75.607143"
       width="79.059524"
       height="148.79762"
       id="rect997" />
    <rect
       x="89.071429"
       y="121.52381"
       width="59.72619"
       height="73.535714"
       id="rect991" />
    <rect
       x="124.97619"
       y="136.02381"
       width="72.5"
       height="71.464286"
       id="rect973" />
    <rect
       x="140.5119"
       y="252.02381"
       width="61.107143"
       height="94.940476"
       id="rect967" />
    <rect
       x="160.88095"
       y="293.45238"
       width="25.202391"
       height="46.607128"
       id="rect961" />
  </defs>
  <sodipodi:namedview
     pagecolor="#ffffff"
     bordercolor="#666666"
     borderopacity="1"
     objecttolerance="10"
     gridtolerance="10"
     guidetolerance="10"
     inkscape:pageopacity="0"
     inkscape:pageshadow="2"
     inkscape:window-width="2560"
     inkscape:window-height="1377"
     id="namedview8"
     showgrid="false"
     inkscape:zoom="2.0481714"
     inkscape:cx="264.94536"
     inkscape:cy="159.57707"
     inkscape:window-x="-8"
     inkscape:window-y="-8"
     inkscape:window-maximized="1"
     inkscape:current-layer="text945"
     inkscape:document-rotation="0" />
  <path
     d="M5.079 5.776h336.913v337.67H5.08z"
     stroke-width="2"
     stroke="#000"
     id="path2" />
  <path
     d="M282.734 40.554c0-8.376 6.966-15.165 15.56-15.165 4.126 0 8.084 1.597 11.001 4.441 2.918 2.844 4.558 6.702 4.558 10.724 0 8.376-6.966 15.165-15.56 15.165-8.593 0-15.559-6.79-15.559-15.165z"
     stroke-width="2"
     stroke="#000"
     id="path4" />
  <path
     d="m 158.4405,37.630952 c 0,-8.376 6.966,-15.165 15.56,-15.165 4.126,0 8.084,1.597 11.001,4.441 2.918,2.844 4.558,6.702 4.558,10.724 0,8.376 -6.966,15.165 -15.56,15.165 -8.593,0 -15.559,-6.79 -15.559,-15.165 z"
     stroke-width="2"
     stroke="#000000"
     id="path4-4" />
  <path
     d="m 26,122.90438 c 0,-8.376 6.966,-15.165 15.56,-15.165 4.126,0 8.084,1.597 11.001,4.441 2.918,2.844 4.558,6.702 4.558,10.724 0,8.376 -6.966,15.165 -15.56,15.165 -8.593,0 -15.559,-6.79 -15.559,-15.165 z"
     stroke-width="2"
     stroke="#000000"
     id="path4-4-7" />
  <path
     d="m 26,240.28538 c 0,-8.376 6.966,-15.165 15.56,-15.165 4.126,0 8.084,1.597 11.001,4.441 2.918,2.844 4.558,6.702 4.558,10.724 0,8.376 -6.966,15.165 -15.56,15.165 -8.593,0 -15.559,-6.79 -15.559,-15.165 z"
     stroke-width="2"
     stroke="#000000"
     id="path4-4-9" />
  <path
     d="m 289,122.90476 c 0,-8.376 6.966,-15.165 15.56,-15.165 4.126,0 8.084,1.597 11.001,4.441 2.918,2.844 4.558,6.702 4.558,10.724 0,8.376 -6.966,15.165 -15.56,15.165 -8.593,0 -15.559,-6.79 -15.559,-15.165 z"
     stroke-width="2"
     stroke="#000000"
     id="path4-4-3" />
  <path
     d="m 289,240.28571 c 0,-8.376 6.966,-15.165 15.56,-15.165 4.126,0 8.084,1.597 11.001,4.441 2.918,2.844 4.558,6.702 4.558,10.724 0,8.376 -6.966,15.165 -15.56,15.165 -8.593,0 -15.559,-6.79 -15.559,-15.165 z"
     stroke-width="2"
     stroke="#000000"
     id="path4-4-8" />
  <rect
     style="fill:none;fill-opacity:1;stroke:#000000;stroke-width:1.999;stroke-linecap:round;stroke-linejoin:round;stroke-miterlimit:4;stroke-dasharray:none"
     id="rect904"
     width="40.738094"
     height="53.511909"
     x="104.60715"
     y="286.54761" />
  <rect
     style="fill:none;fill-opacity:1;stroke:#000000;stroke-width:1.999;stroke-linecap:round;stroke-linejoin:round;stroke-miterlimit:4;stroke-dasharray:none"
     id="rect904-6"
     width="40.738094"
     height="53.511909"
     x="145.34525"
     y="286.54761" />
  <rect
     style="fill:none;fill-opacity:1;stroke:#000000;stroke-width:1.999;stroke-linecap:round;stroke-linejoin:round;stroke-miterlimit:4;stroke-dasharray:none"
     id="rect904-1"
     width="40.738094"
     height="53.511909"
     x="186.08334"
     y="286.54761" />
  <g
     aria-label="0  1  2"
     id="text945"
     style="font-style:normal;font-variant:normal;font-weight:normal;font-stretch:normal;font-size:42.4661px;line-height:1.25;font-family:'Ink Free';-inkscape-font-specification:'Ink Free';fill:#ff0000;fill-opacity:1;stroke-width:0.769542">
    <path
       d="m 125.78708,300.30654 q 1.99591,0 3.73702,0.76439 1.78358,0.76439 3.10003,2.08084 1.31644,1.31645 2.08083,3.10003 0.76439,1.74111 0.76439,3.73701 v 9.68227 q 0,1.99591 -0.76439,3.77949 -0.76439,1.74111 -2.08083,3.05756 -1.31645,1.31644 -3.10003,2.08083 -1.74111,0.72193 -3.73702,0.72193 h -1.91097 q -1.99591,0 -3.77948,-0.72193 -1.74111,-0.76439 -3.05756,-2.08083 -1.31645,-1.31645 -2.08084,-3.05756 -0.76439,-1.78358 -0.76439,-3.77949 v -9.68227 q 0,-1.9959 0.76439,-3.73701 0.76439,-1.78358 2.08084,-3.10003 1.31645,-1.31645 3.05756,-2.08084 1.78357,-0.76439 3.77948,-0.76439 z m 0,23.22896 q 1.61372,0 2.71783,-1.10412 1.14659,-1.14658 1.14659,-2.7603 v -3.86441 -1.95344 -3.86442 q 0,-1.61371 -1.14659,-2.71783 -1.10411,-1.14658 -2.71783,-1.14658 h -1.91097 q -0.80686,0 -1.52878,0.29726 -0.67946,0.29726 -1.23152,0.84932 -0.50959,0.5096 -0.80685,1.23152 -0.29727,0.67946 -0.29727,1.48631 v 3.86442 1.95344 3.86441 q 0,0.80686 0.29727,1.52878 0.29726,0.67946 0.80685,1.23152 0.55206,0.50959 1.23152,0.80686 0.72192,0.29726 1.52878,0.29726 z"
       style="font-style:normal;font-variant:normal;font-weight:normal;font-stretch:normal;font-size:42.4661px;font-family:'Casino Flat';-inkscape-font-specification:'Casino Flat';fill:#ff0000;fill-opacity:1;stroke-width:0.769542"
       id="path909" />
    <path
       d="m 170.37639,325.19168 q 0,2.67536 0.97672,3.52468 0.1274,0.0849 0.0849,0.21233 -0.0425,0.1274 -0.21233,0.1274 h -7.47403 q -0.16987,0 -0.21233,-0.1274 -0.0425,-0.1274 0.0849,-0.21233 0.97672,-0.84932 0.97672,-3.52468 v -19.36454 h -2.25071 q -0.25479,-3.22743 -2.16577,-5.47813 -0.0849,-0.0849 -0.0849,-0.16987 0.0425,-0.12739 0.21233,-0.12739 h 2.33564 5.77539 2.80276 q 0.16986,0 0.21233,0.12739 0.0425,0.0849 -0.0849,0.21233 -0.97672,0.76439 -0.97672,3.52469 v 1.91098 3.52468 6.15759 7.47403 z"
       style="font-style:normal;font-variant:normal;font-weight:normal;font-stretch:normal;font-size:42.4661px;font-family:'Casino Flat';-inkscape-font-specification:'Casino Flat';fill:#ff0000;fill-opacity:1;stroke-width:0.769542"
       id="path911" />
    <path
       d="m 217.17394,322.30398 q 0.12739,-0.1274 0.25479,-0.0849 0.1274,0.0425 0.1274,0.21233 v 0.84932 5.77539 h -8.70555 -1.95344 -1.95344 -8.66308 v -6.96444 q 0,-2.16577 0.80685,-4.07674 0.84932,-1.91098 2.25071,-3.31236 1.40138,-1.40138 3.31235,-2.20824 1.91098,-0.84932 4.07675,-0.84932 h 0.16986 1.95344 q 1.18905,0 2.03837,-0.80686 0.84933,-0.84932 0.84933,-2.08083 0,-1.23152 -0.84933,-2.03838 -0.84932,-0.84932 -2.03837,-0.84932 h -1.95344 -1.95344 q -0.59453,0 -1.14658,0.2548 -0.42467,0.21233 -0.80686,0.89179 -0.3822,0.63699 0.0849,1.44384 0.1274,0.29727 -0.16986,0.29727 h -0.84932 -5.77539 q 0,-1.78358 0.67945,-3.35483 0.67946,-1.61371 1.82605,-2.80276 1.18905,-1.18905 2.76029,-1.86851 1.61371,-0.67945 3.39729,-0.67945 h 1.95344 1.95344 q 1.78358,0 3.35482,0.67945 1.61371,0.67946 2.80277,1.86851 1.18905,1.18905 1.8685,2.80276 0.67946,1.57125 0.67946,3.35483 0,1.78357 -0.67946,3.39728 -0.67945,1.57125 -1.8685,2.7603 -1.18906,1.18905 -2.80277,1.86851 -1.57124,0.67946 -3.35482,0.67946 h -1.95344 -0.16986 q -0.97672,0 -1.82605,0.38219 -0.84932,0.33973 -1.48631,0.97672 -0.63699,0.63699 -1.01919,1.48631 -0.33972,0.84933 -0.33972,1.78358 v 1.18905 h 2.88769 1.95344 1.95344 4.79867 q 2.7603,0 3.52469,-0.97672 z"
       style="font-style:normal;font-variant:normal;font-weight:normal;font-stretch:normal;font-size:42.4661px;font-family:'Casino Flat';-inkscape-font-specification:'Casino Flat';fill:#ff0000;fill-opacity:1;stroke-width:0.769542"
       id="path913" />
  </g>
  <text
     xml:space="preserve"
     style="font-size:30.9271px;line-height:1.25;font-family:'Casino Flat';-inkscape-font-specification:'Casino Flat';fill:#ff0000;fill-opacity:1;stroke-width:0.773177"
     x="163.56447"
     y="316.25558"
     id="text949"><tspan
       sodipodi:role="line"
       id="tspan947"
       x="163.56447"
       y="316.25558"
       style="fill:#ff0000;fill-opacity:1;stroke-width:0.773177" /></text>
  <text
     xml:space="preserve"
     style="font-size:30.9271px;line-height:1.25;font-family:'Casino Flat';-inkscape-font-specification:'Casino Flat';fill:#ff0000;fill-opacity:1;stroke-width:0.773177"
     x="187.85512"
     y="325.0643"
     id="text953"><tspan
       sodipodi:role="line"
       id="tspan951"
       x="187.85512"
       y="325.0643"
       style="fill:#ff0000;fill-opacity:1;stroke-width:0.773177" /></text>
  <text
     xml:space="preserve"
     style="font-size:40px;line-height:1.25;font-family:'Casino Flat';-inkscape-font-specification:'Casino Flat'"
     x="163.9881"
     y="336.2619"
     id="text957"><tspan
       sodipodi:role="line"
       id="tspan955"
       x="163.9881"
       y="336.2619">1</tspan></text>
  <text
     xml:space="preserve"
     id="text959"
     style="line-height:1.25;font-family:'Casino Flat';font-size:40px;-inkscape-font-specification:'Casino Flat';white-space:pre;shape-inside:url(#rect961);" />
  <text
     xml:space="preserve"
     id="text965"
     style="line-height:1.25;font-family:'Casino Flat';font-size:40px;-inkscape-font-specification:'Casino Flat';white-space:pre;shape-inside:url(#rect967);" />
  <text
     xml:space="preserve"
     id="text971"
     style="font-size:40px;line-height:1.25;font-family:'Britannic Bold';-inkscape-font-specification:'Britannic Bold, ';white-space:pre;shape-inside:url(#rect973);font-weight:normal;font-style:normal;font-stretch:normal;font-variant:normal;" />
  <text
     xml:space="preserve"
     style="font-size:40px;line-height:1.25;font-family:'Casino Flat';-inkscape-font-specification:'Casino Flat'"
     x="176.07143"
     y="189.53571"
     id="text983"><tspan
       sodipodi:role="line"
       id="tspan981"
       x="176.07143"
       y="189.53571" /></text>
  <text
     xml:space="preserve"
     style="font-size:40px;line-height:1.25;font-family:'Casino Flat';-inkscape-font-specification:'Casino Flat'"
     x="102.53571"
     y="212.32143"
     id="text987"><tspan
       sodipodi:role="line"
       id="tspan985"
       x="102.53571"
       y="212.32143">+</tspan></text>
  <text
     xml:space="preserve"
     id="text989"
     style="font-size:40px;line-height:1.25;font-family:'Casino Flat';-inkscape-font-specification:'Casino Flat';white-space:pre;shape-inside:url(#rect991);" />
  <text
     xml:space="preserve"
     id="text995"
     style="line-height:1.25;font-family:'Casino Flat';font-size:40px;-inkscape-font-specification:'Casino Flat';white-space:pre;shape-inside:url(#rect997);" />
  <path
     style="fill:none;stroke:#000000;stroke-width:2;stroke-linecap:butt;stroke-linejoin:miter;stroke-opacity:1;stroke-miterlimit:4;stroke-dasharray:none"
     d="m 174.54087,95.660409 c -19.65253,-0.156904 -33.81971,41.024861 -31.3329,49.944651 1.85605,6.65732 11.86598,13.17746 19.14845,2.93601 7.28246,-10.24145 -8.64052,84.97595 -1.87278,95.54123 6.76774,10.56528 19.05127,11.44662 25.54761,0 6.49634,-11.44662 -8.96497,-107.00817 -0.87536,-95.54124 8.0896,11.46694 20.19448,4.39789 19.92567,-2.42682 -0.2688,-6.82471 -10.88221,-50.296881 -30.54069,-50.453831 z"
     id="path1001"
     sodipodi:nodetypes="asczzcza" />
  <circle
     style="fill:none;fill-opacity:1;stroke:#000000;stroke-width:2;stroke-linecap:round;stroke-linejoin:round;stroke-miterlimit:4;stroke-dasharray:none"
     id="path1003"
     cx="173.32535"
     cy="239.23779"
     r="5.3706446" />
</svg>
